<svg width="1440" height="485" viewBox="0 0 1440 485" fill="none" xmlns="http://www.w3.org/2000/svg">
<rect x="1" y="1" width="1438" height="483" fill="#FCF9F9"/>
<path d="M1313 154V154C1313 145.619 1313 141.428 1311.76 138.078C1309.74 132.588 1305.41 128.261 1299.92 126.236C1296.57 125 1292.38 125 1284 125V125" stroke="#222222" stroke-width="2" stroke-linecap="round"/>
<path d="M1313 96V96C1313 104.381 1313 108.572 1314.24 111.922C1316.26 117.412 1320.59 121.739 1326.08 123.764C1329.43 125 1333.62 125 1342 125V125" stroke="#222222" stroke-width="2" stroke-linecap="round"/>
<path d="M1284 125V125C1292.38 125 1296.57 125 1299.92 123.764C1305.41 121.739 1309.74 117.412 1311.76 111.922C1313 108.572 1313 104.381 1313 96V96" stroke="#222222" stroke-width="2" stroke-linecap="round"/>
<path d="M1342 125V125C1333.62 125 1329.43 125 1326.08 126.236C1320.59 128.261 1316.26 132.588 1314.24 138.078C1313 141.428 1313 145.619 1313 154V154" stroke="#222222" stroke-width="2" stroke-linecap="round"/>
<path d="M152 390L152 383.4C152 369.959 152 363.238 149.384 358.104C147.083 353.588 143.412 349.917 138.896 347.616C133.762 345 127.041 345 113.6 345L107 345" stroke="#F14D1D" stroke-width="2"/>
<path d="M152 300L152 306.6C152 320.041 152 326.762 154.616 331.896C156.917 336.412 160.588 340.083 165.104 342.384C170.238 345 176.959 345 190.4 345L197 345" stroke="#F14D1D" stroke-width="2"/>
<path d="M107 345L113.6 345C127.041 345 133.762 345 138.896 342.384C143.412 340.083 147.083 336.412 149.384 331.896C152 326.762 152 320.041 152 306.6L152 300" stroke="#F14D1D" stroke-width="2"/>
<path d="M197 345L190.4 345C176.959 345 170.238 345 165.104 347.616C160.588 349.917 156.917 353.588 154.616 358.104C152 363.238 152 369.959 152 383.4L152 430" stroke="#F14D1D" stroke-width="2"/>
<path d="M109 416V416C109 407.619 109 403.428 107.764 400.078C105.739 394.588 101.412 390.261 95.9223 388.236C92.5715 387 88.381 387 80 387V387" stroke="#F14D1D" stroke-width="2"/>
<path d="M109 358V358C109 366.381 109 370.572 110.236 373.922C112.261 379.412 116.588 383.739 122.078 385.764C125.428 387 129.619 387 138 387V387" stroke="#F14D1D" stroke-width="2"/>
<path d="M80 387V387C88.381 387 92.5715 387 95.9223 385.764C101.412 383.739 105.739 379.412 107.764 373.922C109 370.572 109 366.381 109 358V358" stroke="#F14D1D" stroke-width="2"/>
<path d="M138 387V387C129.619 387 125.428 387 122.078 388.236C116.588 390.261 112.261 394.588 110.236 400.078C109 403.428 109 407.619 109 416V416" stroke="#F14D1D" stroke-width="2"/>
<path d="M197 460V460C197 451.619 197 447.428 195.764 444.078C193.739 438.588 189.412 434.261 183.922 432.236C180.572 431 176.381 431 168 431V431" stroke="#F14D1D" stroke-width="2" stroke-linecap="round"/>
<path d="M197 402V402C197 410.381 197 414.572 198.236 417.922C200.261 423.412 204.588 427.739 210.078 429.764C213.428 431 217.619 431 226 431V431" stroke="#F14D1D" stroke-width="2" stroke-linecap="round"/>
<path d="M168 431V431C176.381 431 180.572 431 183.922 429.764C189.412 427.739 193.739 423.412 195.764 417.922C197 414.572 197 410.381 197 402V402" stroke="#F14D1D" stroke-width="2" stroke-linecap="round"/>
<path d="M226 431V431C217.619 431 213.428 431 210.078 432.236C204.588 434.261 200.261 438.588 198.236 444.078C197 447.428 197 451.619 197 460V460" stroke="#F14D1D" stroke-width="2" stroke-linecap="round"/>
<path d="M1434 6L1421 6L1421 7C1427.63 7 1433 12.3726 1433 19L1434 19L1434 6Z" fill="#F14D1D"/>
<path d="M6 6L6 19H7C7 12.3726 12.3726 7 19 7V6L6 6Z" fill="#F14D1D"/>
<path d="M1434 478L1434 465L1433 465C1433 471.627 1427.63 477 1421 477L1421 478L1434 478Z" fill="#F14D1D"/>
<path d="M10 478L22 478L22 477C15.8824 477 10.9231 472.041 10.9231 465.923L10.9231 465L10 465L10 478Z" fill="#F14D1D"/>
<path d="M515.133 351H535.699C537.105 351 538.318 350.508 539.338 349.506C540.34 348.504 540.85 347.291 540.85 345.867V307.301L520.283 317.584V299.584H530.566V309.867L540.85 304.717V294.434C540.85 293.027 540.34 291.814 539.338 290.795C538.318 289.811 537.105 289.301 535.699 289.301H515.133C513.709 289.301 512.496 289.811 511.494 290.812C510.492 291.832 510 293.045 510 294.451V333L530.566 322.717V340.717H520.283V330.434L510 335.584V345.867C510 347.291 510.492 348.504 511.494 349.506C512.496 350.508 513.709 351 515.133 351ZM559.442 351H569.725V299.584H580.008V289.301H549.158V299.584H559.442V351ZM598.6 317.584V299.584H608.883V312.434L598.6 317.584ZM588.317 351H598.6V327.867L608.883 322.717V351H619.166V294.434C619.166 293.027 618.657 291.814 617.655 290.795C616.635 289.811 615.422 289.301 614.016 289.301H593.45C592.026 289.301 590.813 289.811 589.811 290.812C588.809 291.832 588.317 293.045 588.317 294.451V351ZM637.759 317.584V299.584H648.042V312.434L637.759 317.584ZM627.475 351H637.759V327.867L642.153 325.67L650.608 351H660.891L650.977 321.258L658.325 317.584V294.434C658.325 293.027 657.815 291.814 656.813 290.795C655.794 289.811 654.581 289.301 653.175 289.301H627.475V351ZM676.917 351H687.2V299.584H697.483V289.301H666.634V299.584H676.917V351ZM716.075 317.584V299.584H726.359V312.434L716.075 317.584ZM705.792 351H716.075V327.867L720.47 325.67L728.925 351H739.208L729.294 321.258L736.642 317.584V294.434C736.642 293.027 736.132 291.814 735.13 290.795C734.111 289.811 732.898 289.301 731.491 289.301H705.792V351ZM755.234 317.584V299.584H765.517V312.434L755.234 317.584ZM744.951 351H755.234V327.867L765.517 322.717V351H775.8V294.434C775.8 293.027 775.29 291.814 774.289 290.795C773.269 289.811 772.056 289.301 770.65 289.301H750.083C748.66 289.301 747.447 289.811 746.445 290.812C745.443 291.832 744.951 293.045 744.951 294.451V351ZM789.242 351H809.808C811.215 351 812.427 350.508 813.447 349.506C814.449 348.504 814.959 347.291 814.959 345.867V327.867L804.675 333V340.717H794.392V299.584H804.675V312.434L814.959 307.301V294.434C814.959 293.027 814.449 291.814 813.447 290.795C812.427 289.811 811.215 289.301 809.808 289.301H789.242C787.818 289.301 786.605 289.811 785.603 290.812C784.601 291.832 784.109 293.045 784.109 294.451V345.867C784.109 347.291 784.601 348.504 785.603 349.506C786.605 350.508 787.818 351 789.242 351ZM823.268 351H833.551V289.301H823.268V351ZM843.834 351H854.117L843.834 320.15L854.117 289.301H843.834L833.551 320.15L843.834 351ZM862.426 351H888.125V340.717H872.709V327.867L888.125 320.15V309.867L872.709 317.584V299.584H888.125V289.301H862.426V351ZM906.735 317.584V299.584H917.018V312.434L906.735 317.584ZM896.452 351H906.735V327.867L911.129 325.67L919.584 351H929.868L919.954 321.258L927.301 317.584V294.434C927.301 293.027 926.791 291.814 925.789 290.795C924.77 289.811 923.557 289.301 922.151 289.301H896.452V351Z" fill="black"/>
<rect x="1" y="1" width="1438" height="483" stroke="#F14D1D" stroke-width="2"/>
<path d="M717.686 32.6074C718.311 30.4642 721.347 30.4642 721.972 32.6074L736.428 82.2211C737.154 84.7105 739.84 86.0601 742.27 85.1557L799.383 63.9001C801.481 63.1195 803.294 65.5673 801.936 67.3459L766.235 114.108C764.245 116.715 761.366 118.501 758.146 119.127L724.602 125.644C720.454 126.45 720.649 132.451 724.841 132.985L834.893 146.399C837.369 146.714 837.538 150.239 835.102 150.789L769.31 164.549C766.303 165.229 764.874 168.68 766.52 171.286L803.095 229.206C804.235 231.012 802.431 233.234 800.429 232.489L742.27 210.844C739.84 209.94 737.154 211.289 736.428 213.779L721.972 263.393C721.347 265.536 718.311 265.536 717.686 263.393L703.23 213.779C702.505 211.289 699.818 209.94 697.388 210.844L640.275 232.1C638.178 232.88 636.365 230.433 637.722 228.654L673.346 181.993C675.383 179.325 678.347 177.519 681.652 176.933L719.18 170.278C723.387 169.533 723.223 163.443 718.983 162.924L604.961 149.561C602.476 149.257 602.298 145.721 604.74 145.169L670.348 131.451C673.355 130.771 674.784 127.32 673.138 124.714L636.564 66.794C635.423 64.988 637.227 62.7658 639.229 63.5108L697.388 85.1557C699.818 86.0601 702.505 84.7105 703.23 82.2211L717.686 32.6074Z" fill="#F14D1D"/>
</svg>
